<?xml version="1.0" encoding="UTF-8" standalone="no"?> <!-- Created with Vectornator for iOS (http://vectornator.io/) --><!DOCTYPE svg PUBLIC "-//W3C//DTD SVG 1.1//EN" "http://www.w3.org/Graphics/SVG/1.1/DTD/svg11.dtd">
<svg height="100%" style="fill-rule:evenodd;stroke-linecap:round;stroke-linejoin:round;" xmlns:xlink="http://www.w3.org/1999/xlink" xmlns="http://www.w3.org/2000/svg" xml:space="preserve" width="100%" xmlns:vectornator="http://vectornator.io" version="1.1" viewBox="0 0 1920 1080">
<metadata>
<vectornator:setting key="DimensionsVisible" value="1"/>
<vectornator:setting key="SnapToGrid" value="0"/>
<vectornator:setting key="SnapToPoints" value="0"/>
<vectornator:setting key="GuidesVisible" value="1"/>
<vectornator:setting key="RulersVisible" value="1"/>
<vectornator:setting key="CMYKEnabledKey" value="0"/>
<vectornator:setting key="SnapToEdges" value="0"/>
<vectornator:setting key="DisplayWhiteBackground" value="0"/>
<vectornator:setting key="SnapToGuides" value="1"/>
<vectornator:setting key="GridSpacing" value="36"/>
<vectornator:setting key="Units" value="Pixels"/>
<vectornator:setting key="DynamicGuides" value="0"/>
<vectornator:setting key="New" value="1"/>
</metadata>
<defs/>
<g id="레이어 2" vectornator:layerName="레이어 2">
<path vectornator:shadowColor="#cabdac" vectornator:shadowOpacity="1" vectornator:shadowRadius="18.0609" d="M0+0L1920+0L1920+1080L0+1080L0+0Z" vectornator:shadowOffset="9.32935" fill="#ffffff" opacity="1" vectornator:shadowAngle="1.57183"/>
</g>
<g id="레이어 4" vectornator:layerName="레이어 4">
<path vectornator:shadowColor="#cabdac" vectornator:shadowOpacity="1" vectornator:shadowRadius="18.0609" d="M1000.62+436.156L1000.62+711.906C983.198+711.675+965.821+711.375+948.188+711.375C540.537+711.375+185.553+773.866-0+866.219L0+1080L1920+1080L1920+878.688C1753.46+785.837+1419.91+720.155+1028.56+712.188L1028.56+436.156L1000.62+436.156Z" vectornator:shadowOffset="9.32935" fill="#ffc017" opacity="1" vectornator:shadowAngle="1.57183"/>
<g opacity="1">
<path vectornator:shadowColor="#cabdac" vectornator:shadowOpacity="0" vectornator:shadowRadius="18.0609" d="M727.83+579.408C726.476+579.408+725.228+579.128+724.085+578.568C722.941+578.008+722.37+577.168+722.37+576.048L722.37+531.528C722.37+530.641+722.743+529.871+723.49+529.218C724.236+528.564+725.216+528.238+726.43+528.238L740.92+528.238C744+528.238+746.788+528.763+749.285+529.813C751.781+530.863+753.765+532.566+755.235+534.923C756.705+537.279+757.44+540.418+757.44+544.338L757.44+544.688C757.44+548.608+756.681+551.758+755.165+554.138C753.648+556.518+751.583+558.244+748.97+559.318C746.356+560.391+743.44+560.928+740.22+560.928L733.29+560.928L733.29+576.048C733.29+577.168+732.718+578.008+731.575+578.568C730.431+579.128+729.183+579.408+727.83+579.408ZM733.29+552.528L740.22+552.528C742.18+552.528+743.72+551.956+744.84+550.813C745.96+549.669+746.52+547.908+746.52+545.528L746.52+544.758C746.52+542.378+745.96+540.616+744.84+539.473C743.72+538.329+742.18+537.758+740.22+537.758L733.29+537.758L733.29+552.528Z" vectornator:shadowOffset="9.32935" fill="#442107" opacity="1" vectornator:shadowAngle="1.57183"/>
<path vectornator:shadowColor="#cabdac" vectornator:shadowOpacity="0" vectornator:shadowRadius="18.0609" d="M760.997+579.408C760.017+579.408+758.979+579.209+757.882+578.813C756.786+578.416+755.864+577.879+755.117+577.203C754.371+576.526+753.997+575.768+753.997+574.928C753.997+574.788+754.044+574.531+754.137+574.158L767.157+531.458C767.531+530.244+768.417+529.334+769.817+528.728C771.217+528.121+772.711+527.818+774.297+527.818C775.931+527.818+777.436+528.121+778.812+528.728C780.189+529.334+781.064+530.244+781.437+531.458L794.527+574.158C794.621+574.531+794.667+574.788+794.667+574.928C794.667+575.768+794.294+576.526+793.547+577.203C792.801+577.879+791.891+578.416+790.817+578.813C789.744+579.209+788.694+579.408+787.667+579.408C786.781+579.408+786.022+579.256+785.392+578.953C784.762+578.649+784.331+578.124+784.097+577.378L781.717+568.628L766.947+568.628L764.567+577.378C764.381+578.124+763.961+578.649+763.307+578.953C762.654+579.256+761.884+579.408+760.997+579.408ZM769.187+560.228L779.407+560.228L774.297+541.468L769.187+560.228Z" vectornator:shadowOffset="9.32935" fill="#442107" opacity="1" vectornator:shadowAngle="1.57183"/>
<path vectornator:shadowColor="#cabdac" vectornator:shadowOpacity="0" vectornator:shadowRadius="18.0609" d="M813.205+579.828C809.985+579.828+807.08+579.291+804.49+578.218C801.9+577.144+799.847+575.394+798.33+572.968C796.813+570.541+796.055+567.321+796.055+563.308L796.055+544.758C796.055+540.744+796.813+537.524+798.33+535.098C799.847+532.671+801.888+530.921+804.455+529.848C807.022+528.774+809.822+528.238+812.855+528.238C816.215+528.238+819.213+528.786+821.85+529.883C824.487+530.979+826.575+532.554+828.115+534.608C829.655+536.661+830.425+539.181+830.425+542.168C830.425+544.268+829.982+545.656+829.095+546.333C828.208+547.009+826.832+547.348+824.965+547.348C823.518+547.348+822.258+547.114+821.185+546.648C820.112+546.181+819.552+545.318+819.505+544.058C819.505+543.218+819.4+542.308+819.19+541.328C818.98+540.348+818.443+539.508+817.58+538.808C816.717+538.108+815.282+537.758+813.275+537.758C811.268+537.758+809.717+538.329+808.62+539.473C807.523+540.616+806.975+542.378+806.975+544.758L806.975+563.308C806.975+565.688+807.523+567.449+808.62+568.593C809.717+569.736+811.245+570.308+813.205+570.308C815.165+570.308+816.705+569.736+817.825+568.593C818.945+567.449+819.505+565.688+819.505+563.308L819.505+560.928L815.375+560.928C814.348+560.928+813.543+560.496+812.96+559.633C812.377+558.769+812.085+557.801+812.085+556.728C812.085+555.701+812.377+554.744+812.96+553.858C813.543+552.971+814.348+552.528+815.375+552.528L827.135+552.528C828.208+552.528+829.025+552.866+829.585+553.543C830.145+554.219+830.425+555.024+830.425+555.958L830.425+563.308C830.425+567.321+829.667+570.541+828.15+572.968C826.633+575.394+824.568+577.144+821.955+578.218C819.342+579.291+816.425+579.828+813.205+579.828Z" vectornator:shadowOffset="9.32935" fill="#442107" opacity="1" vectornator:shadowAngle="1.57183"/>
<path vectornator:shadowColor="#cabdac" vectornator:shadowOpacity="0" vectornator:shadowRadius="18.0609" d="M839.373+579.408C838.206+579.408+837.121+579.128+836.118+578.568C835.114+578.008+834.613+577.168+834.613+576.048L834.613+531.598C834.613+530.478+835.114+529.638+836.118+529.078C837.121+528.518+838.206+528.238+839.373+528.238L864.293+528.238C865.459+528.238+866.299+528.739+866.813+529.743C867.326+530.746+867.583+531.808+867.583+532.928C867.583+534.234+867.303+535.366+866.743+536.323C866.183+537.279+865.366+537.758+864.293+537.758L845.533+537.758L845.533+549.588L856.033+549.588C857.106+549.588+857.923+550.019+858.483+550.883C859.043+551.746+859.323+552.738+859.323+553.858C859.323+554.791+859.066+555.713+858.553+556.623C858.039+557.533+857.199+557.988+856.033+557.988L845.533+557.988L845.533+569.888L864.293+569.888C865.366+569.888+866.183+570.366+866.743+571.323C867.303+572.279+867.583+573.411+867.583+574.718C867.583+575.838+867.326+576.899+866.813+577.903C866.299+578.906+865.459+579.408+864.293+579.408L839.373+579.408Z" vectornator:shadowOffset="9.32935" fill="#442107" opacity="1" vectornator:shadowAngle="1.57183"/>
<path vectornator:shadowColor="#cabdac" vectornator:shadowOpacity="0" vectornator:shadowRadius="18.0609" d="M887.578+579.408C886.225+579.408+884.976+579.128+883.833+578.568C882.69+578.008+882.118+577.168+882.118+576.048L882.118+531.598C882.118+530.431+882.69+529.579+883.833+529.043C884.976+528.506+886.225+528.238+887.578+528.238C888.885+528.238+889.97+528.343+890.833+528.553C891.696+528.763+892.49+529.241+893.213+529.988C893.936+530.734+894.741+531.971+895.628+533.698L906.968+555.328L906.968+531.528C906.968+530.361+907.54+529.521+908.683+529.008C909.826+528.494+911.075+528.238+912.428+528.238C913.781+528.238+915.03+528.494+916.173+529.008C917.316+529.521+917.888+530.361+917.888+531.528L917.888+576.048C917.888+577.168+917.316+578.008+916.173+578.568C915.03+579.128+913.781+579.408+912.428+579.408C911.168+579.408+910.001+579.221+908.928+578.848C907.855+578.474+906.991+577.681+906.338+576.468L893.038+552.248L893.038+576.048C893.038+577.168+892.466+578.008+891.323+578.568C890.18+579.128+888.931+579.408+887.578+579.408Z" vectornator:shadowOffset="9.32935" fill="#442107" opacity="1" vectornator:shadowAngle="1.57183"/>
<path vectornator:shadowColor="#cabdac" vectornator:shadowOpacity="0" vectornator:shadowRadius="18.0609" d="M939.926+579.828C936.706+579.828+933.801+579.291+931.211+578.218C928.621+577.144+926.567+575.394+925.051+572.968C923.534+570.541+922.776+567.321+922.776+563.308L922.776+544.758C922.776+540.744+923.534+537.524+925.051+535.098C926.567+532.671+928.621+530.921+931.211+529.848C933.801+528.774+936.706+528.238+939.926+528.238C943.146+528.238+946.062+528.774+948.676+529.848C951.289+530.921+953.354+532.671+954.871+535.098C956.387+537.524+957.146+540.744+957.146+544.758L957.146+563.308C957.146+567.321+956.387+570.541+954.871+572.968C953.354+575.394+951.289+577.144+948.676+578.218C946.062+579.291+943.146+579.828+939.926+579.828ZM939.926+570.308C941.886+570.308+943.426+569.748+944.546+568.628C945.666+567.508+946.226+565.734+946.226+563.308L946.226+544.758C946.226+542.331+945.666+540.558+944.546+539.438C943.426+538.318+941.886+537.758+939.926+537.758C937.966+537.758+936.437+538.318+935.341+539.438C934.244+540.558+933.696+542.331+933.696+544.758L933.696+563.308C933.696+565.734+934.244+567.508+935.341+568.628C936.437+569.748+937.966+570.308+939.926+570.308Z" vectornator:shadowOffset="9.32935" fill="#442107" opacity="1" vectornator:shadowAngle="1.57183"/>
<path vectornator:shadowColor="#cabdac" vectornator:shadowOpacity="0" vectornator:shadowRadius="18.0609" d="M976.453+579.408C975.1+579.408+973.852+579.128+972.708+578.568C971.565+578.008+970.993+577.168+970.993+576.048L970.993+538.038L961.333+538.038C960.307+538.038+959.502+537.536+958.918+536.533C958.335+535.529+958.043+534.374+958.043+533.068C958.043+531.901+958.3+530.804+958.813+529.778C959.327+528.751+960.167+528.238+961.333+528.238L991.573+528.238C992.74+528.238+993.58+528.751+994.093+529.778C994.607+530.804+994.863+531.901+994.863+533.068C994.863+534.374+994.583+535.529+994.023+536.533C993.463+537.536+992.647+538.038+991.573+538.038L981.913+538.038L981.913+576.048C981.913+577.168+981.342+578.008+980.198+578.568C979.055+579.128+977.807+579.408+976.453+579.408Z" vectornator:shadowOffset="9.32935" fill="#442107" opacity="1" vectornator:shadowAngle="1.57183"/>
</g>
<g opacity="1">
<path vectornator:shadowColor="#cabdac" vectornator:shadowOpacity="0" vectornator:shadowRadius="18.0609" d="M1045.42+657.777C1044.07+657.777+1042.82+657.497+1041.68+656.937C1040.54+656.377+1039.96+655.537+1039.96+654.417L1039.96+609.967C1039.96+608.847+1040.47+608.007+1041.47+607.447C1042.47+606.887+1043.56+606.607+1044.72+606.607L1069.01+606.607C1070.18+606.607+1071.02+607.108+1071.53+608.112C1072.05+609.115+1072.3+610.177+1072.3+611.297C1072.3+612.603+1072.02+613.735+1071.46+614.692C1070.9+615.648+1070.09+616.127+1069.01+616.127L1050.88+616.127L1050.88+627.957L1061.45+627.957C1062.53+627.957+1063.34+628.388+1063.9+629.252C1064.46+630.115+1064.74+631.107+1064.74+632.227C1064.74+633.16+1064.49+634.082+1063.97+634.992C1063.46+635.902+1062.62+636.357+1061.45+636.357L1050.88+636.357L1050.88+654.417C1050.88+655.537+1050.31+656.377+1049.17+656.937C1048.03+657.497+1046.78+657.777+1045.42+657.777Z" vectornator:shadowOffset="9.32935" fill="#442107" opacity="1" vectornator:shadowAngle="1.57183"/>
<path vectornator:shadowColor="#cabdac" vectornator:shadowOpacity="0" vectornator:shadowRadius="18.0609" d="M1092.11+658.197C1088.89+658.197+1085.99+657.66+1083.4+656.587C1080.81+655.513+1078.76+653.763+1077.24+651.337C1075.72+648.91+1074.96+645.69+1074.96+641.677L1074.96+623.127C1074.96+619.113+1075.72+615.893+1077.24+613.467C1078.76+611.04+1080.81+609.29+1083.4+608.217C1085.99+607.143+1088.89+606.607+1092.11+606.607C1095.33+606.607+1098.25+607.143+1100.86+608.217C1103.48+609.29+1105.54+611.04+1107.06+613.467C1108.58+615.893+1109.33+619.113+1109.33+623.127L1109.33+641.677C1109.33+645.69+1108.58+648.91+1107.06+651.337C1105.54+653.763+1103.48+655.513+1100.86+656.587C1098.25+657.66+1095.33+658.197+1092.11+658.197ZM1092.11+648.677C1094.07+648.677+1095.61+648.117+1096.73+646.997C1097.85+645.877+1098.41+644.103+1098.41+641.677L1098.41+623.127C1098.41+620.7+1097.85+618.927+1096.73+617.807C1095.61+616.687+1094.07+616.127+1092.11+616.127C1090.15+616.127+1088.63+616.687+1087.53+617.807C1086.43+618.927+1085.88+620.7+1085.88+623.127L1085.88+641.677C1085.88+644.103+1086.43+645.877+1087.53+646.997C1088.63+648.117+1090.15+648.677+1092.11+648.677Z" vectornator:shadowOffset="9.32935" fill="#442107" opacity="1" vectornator:shadowAngle="1.57183"/>
<path vectornator:shadowColor="#cabdac" vectornator:shadowOpacity="0" vectornator:shadowRadius="18.0609" d="M1133.76+658.197C1130.45+658.197+1127.46+657.66+1124.8+656.587C1122.14+655.513+1120.03+653.763+1118.47+651.337C1116.91+648.91+1116.12+645.69+1116.12+641.677L1116.12+609.897C1116.12+608.73+1116.68+607.89+1117.8+607.377C1118.92+606.863+1120.18+606.607+1121.58+606.607C1122.94+606.607+1124.19+606.863+1125.33+607.377C1126.47+607.89+1127.04+608.73+1127.04+609.897L1127.04+641.677C1127.04+644.057+1127.64+645.818+1128.83+646.962C1130.02+648.105+1131.66+648.677+1133.76+648.677C1135.86+648.677+1137.51+648.105+1138.7+646.962C1139.89+645.818+1140.48+644.057+1140.48+641.677L1140.48+609.897C1140.48+608.73+1141.04+607.89+1142.16+607.377C1143.28+606.863+1144.54+606.607+1145.94+606.607C1147.3+606.607+1148.55+606.863+1149.69+607.377C1150.83+607.89+1151.4+608.73+1151.4+609.897L1151.4+641.677C1151.4+645.69+1150.62+648.91+1149.06+651.337C1147.5+653.763+1145.38+655.513+1142.72+656.587C1140.06+657.66+1137.08+658.197+1133.76+658.197Z" vectornator:shadowOffset="9.32935" fill="#442107" opacity="1" vectornator:shadowAngle="1.57183"/>
<path vectornator:shadowColor="#cabdac" vectornator:shadowOpacity="0" vectornator:shadowRadius="18.0609" d="M1164.21+657.777C1162.86+657.777+1161.61+657.497+1160.47+656.937C1159.33+656.377+1158.75+655.537+1158.75+654.417L1158.75+609.967C1158.75+608.8+1159.33+607.948+1160.47+607.412C1161.61+606.875+1162.86+606.607+1164.21+606.607C1165.52+606.607+1166.61+606.712+1167.47+606.922C1168.33+607.132+1169.13+607.61+1169.85+608.357C1170.57+609.103+1171.38+610.34+1172.26+612.067L1183.6+633.697L1183.6+609.897C1183.6+608.73+1184.18+607.89+1185.32+607.377C1186.46+606.863+1187.71+606.607+1189.06+606.607C1190.42+606.607+1191.67+606.863+1192.81+607.377C1193.95+607.89+1194.52+608.73+1194.52+609.897L1194.52+654.417C1194.52+655.537+1193.95+656.377+1192.81+656.937C1191.67+657.497+1190.42+657.777+1189.06+657.777C1187.8+657.777+1186.64+657.59+1185.56+657.217C1184.49+656.843+1183.63+656.05+1182.97+654.837L1169.67+630.617L1169.67+654.417C1169.67+655.537+1169.1+656.377+1167.96+656.937C1166.82+657.497+1165.57+657.777+1164.21+657.777Z" vectornator:shadowOffset="9.32935" fill="#442107" opacity="1" vectornator:shadowAngle="1.57183"/>
<path vectornator:shadowColor="#cabdac" vectornator:shadowOpacity="0" vectornator:shadowRadius="18.0609" d="M1206.84+657.777C1205.4+657.777+1204.24+657.45+1203.38+656.797C1202.52+656.143+1202.08+655.373+1202.08+654.487L1202.08+609.897C1202.08+609.01+1202.52+608.24+1203.38+607.587C1204.24+606.933+1205.4+606.607+1206.84+606.607L1219.23+606.607C1222.45+606.607+1225.37+607.143+1227.98+608.217C1230.6+609.29+1232.66+611.04+1234.18+613.467C1235.7+615.893+1236.45+619.113+1236.45+623.127L1236.45+641.257C1236.45+645.27+1235.7+648.49+1234.18+650.917C1232.66+653.343+1230.6+655.093+1227.98+656.167C1225.37+657.24+1222.45+657.777+1219.23+657.777L1206.84+657.777ZM1213+648.257L1219.23+648.257C1221.19+648.257+1222.73+647.685+1223.85+646.542C1224.97+645.398+1225.53+643.637+1225.53+641.257L1225.53+623.127C1225.53+620.747+1224.97+618.985+1223.85+617.842C1222.73+616.698+1221.19+616.127+1219.23+616.127L1213+616.127L1213+648.257Z" vectornator:shadowOffset="9.32935" fill="#442107" opacity="1" vectornator:shadowAngle="1.57183"/>
</g>
</g>
<g id="레이어 3" vectornator:layerName="레이어 3">
<path vectornator:shadowColor="#000000" vectornator:shadowOpacity="0.193335" vectornator:shadowRadius="10" d="M958.005+343.093L968.805+343.093C995.813+343.093+1017.71+364.987+1017.71+391.995L1017.71+391.995C1017.71+419.003+995.813+440.897+968.805+440.897L958.005+440.897C930.997+440.897+909.103+419.003+909.103+391.995L909.103+391.995C909.103+364.987+930.997+343.093+958.005+343.093Z" vectornator:shadowOffset="9.32935" fill="#ffc017" opacity="1" vectornator:shadowAngle="0.79131"/>
</g>
<g id="레이어 1" vectornator:layerName="레이어 1">
<g opacity="1">
<path vectornator:shadowColor="#ffb252" vectornator:shadowOpacity="1" vectornator:shadowRadius="0" d="M858.885+468.028C853.085+468.028+847.735+466.828+842.835+464.428C837.935+462.028+835.485+458.428+835.485+453.628L835.485+421.828L765.285+421.828C760.885+421.828+757.185+420.428+754.185+417.628C751.185+414.828+749.685+410.828+749.685+405.628C749.685+404.428+749.885+403.028+750.285+401.428C750.685+399.828+751.285+398.228+752.085+396.628L821.385+260.728C823.585+256.328+826.435+253.228+829.935+251.428C833.435+249.628+837.085+248.728+840.885+248.728C843.685+248.728+846.885+249.428+850.485+250.828C854.085+252.228+857.285+254.278+860.085+256.978C862.885+259.678+864.285+262.828+864.285+266.428C864.285+267.828+863.785+269.728+862.785+272.128L809.685+378.628L835.485+378.628L835.485+357.628C835.485+352.628+837.935+349.028+842.835+346.828C847.735+344.628+853.085+343.528+858.885+343.528C864.685+343.528+870.035+344.628+874.935+346.828C879.835+349.028+882.285+352.628+882.285+357.628L882.285+378.628L895.185+378.628C899.985+378.628+903.585+380.878+905.985+385.378C908.385+389.878+909.585+394.828+909.585+400.228C909.585+405.628+908.085+410.578+905.085+415.078C902.085+419.578+898.785+421.828+895.185+421.828L882.285+421.828L882.285+453.628C882.285+458.428+879.835+462.028+874.935+464.428C870.035+466.828+864.685+468.028+858.885+468.028Z" vectornator:shadowOffset="0" fill="#442107" opacity="1" vectornator:shadowAngle="0.79131"/>
</g>
<g opacity="1">
<path vectornator:shadowColor="#ffb252" vectornator:shadowOpacity="1" vectornator:shadowRadius="0" d="M1119.42+514.015C1113.62+514.015+1108.27+512.815+1103.37+510.415C1098.47+508.015+1096.02+504.415+1096.02+499.615L1096.02+467.815L1025.82+467.815C1021.42+467.815+1017.72+466.415+1014.72+463.615C1011.72+460.815+1010.22+456.815+1010.22+451.615C1010.22+450.415+1010.42+449.015+1010.82+447.415C1011.22+445.815+1011.82+444.215+1012.62+442.615L1081.92+306.715C1084.12+302.315+1086.97+299.215+1090.47+297.415C1093.97+295.615+1097.62+294.715+1101.42+294.715C1104.22+294.715+1107.42+295.415+1111.02+296.815C1114.62+298.215+1117.82+300.265+1120.62+302.965C1123.42+305.665+1124.82+308.815+1124.82+312.415C1124.82+313.815+1124.32+315.715+1123.32+318.115L1070.22+424.615L1096.02+424.615L1096.02+403.615C1096.02+398.615+1098.47+395.015+1103.37+392.815C1108.27+390.615+1113.62+389.515+1119.42+389.515C1125.22+389.515+1130.57+390.615+1135.47+392.815C1140.37+395.015+1142.82+398.615+1142.82+403.615L1142.82+424.615L1155.72+424.615C1160.52+424.615+1164.12+426.865+1166.52+431.365C1168.92+435.865+1170.12+440.815+1170.12+446.215C1170.12+451.615+1168.62+456.565+1165.62+461.065C1162.62+465.565+1159.32+467.815+1155.72+467.815L1142.82+467.815L1142.82+499.615C1142.82+504.415+1140.37+508.015+1135.47+510.415C1130.57+512.815+1125.22+514.015+1119.42+514.015Z" vectornator:shadowOffset="0" fill="#442107" opacity="1" vectornator:shadowAngle="0.79131"/>
</g>
</g>
<g id="레이어 3 copy" vectornator:layerName="레이어 3 copy">
<path stroke="#442107" stroke-width="13.13" d="M963.75+282.25C957.324+282.25+952.094+287.45+952.094+293.875L952.094+327.125L923.031+327L923.031+316.219C923.031+310.091+918.066+305.125+911.938+305.125C905.809+305.125+900.844+310.091+900.844+316.219L900.844+326.875L891.719+326.844C885.591+326.816+880.59+331.778+880.562+337.906C880.535+344.034+885.466+349.004+891.594+349.031L900.844+349.062L900.844+379.719L868.5+380C862.075+380.055+856.913+385.294+856.969+391.719C857.024+398.144+862.262+403.305+868.688+403.25L900.844+402.969L900.844+428.938L891.375+428.906C885.247+428.879+880.246+433.841+880.219+439.969C880.191+446.097+885.153+451.066+891.281+451.094L900.844+451.125L900.844+464.25C900.844+470.378+905.809+475.344+911.938+475.344C918.066+475.344+923.031+470.378+923.031+464.25L923.031+451.25L952.094+451.375L952.094+485.938C952.094+492.363+957.324+497.594+963.75+497.594C970.175+497.594+975.375+492.363+975.375+485.938L975.375+451.469L1005.5+451.625L1005.5+463.781C1005.5+469.909+1010.47+474.875+1016.59+474.875C1022.72+474.875+1027.69+469.909+1027.69+463.781L1027.69+451.719L1039.31+451.781C1045.44+451.809+1050.44+446.847+1050.47+440.719C1050.5+434.591+1045.53+429.59+1039.41+429.562L1027.69+429.5L1027.69+401.906L1060.75+401.625C1067.18+401.57+1072.34+396.3+1072.28+389.875C1072.23+383.45+1066.99+378.289+1060.56+378.344L1027.69+378.625L1027.69+349.656L1039.66+349.719C1045.78+349.746+1050.79+344.784+1050.81+338.656C1050.84+332.528+1045.88+327.559+1039.75+327.531L1027.69+327.469L1027.69+315.719C1027.69+309.591+1022.72+304.625+1016.59+304.625C1010.47+304.625+1005.5+309.591+1005.5+315.719L1005.5+327.375L975.375+327.219L975.375+293.875C975.375+287.449+970.176+282.25+963.75+282.25ZM923.031+349.188L952.094+349.312L952.094+379.281L923.031+379.531L923.031+349.188ZM975.375+349.406L1005.5+349.562L1005.5+378.844L975.375+379.094L975.375+349.406ZM1005.5+402.094L1005.5+429.406L975.375+429.281L975.375+402.344L1005.5+402.094ZM952.094+402.531L952.094+429.188L923.031+429.062L923.031+402.781L952.094+402.531Z" fill="#ffb252" stroke-linecap="butt" opacity="1" stroke-linejoin="round"/>
</g>
</svg>
